<svg width="18" height="24" viewBox="0 0 18 24" fill="none" xmlns="http://www.w3.org/2000/svg">
<path d="M6.38889 19.1687C5.68611 19.1687 5.08449 18.9341 4.58403 18.4649C4.08357 17.9957 3.83333 17.4316 3.83333 16.7727V15.2751C2.61944 14.4964 1.67708 13.498 1.00625 12.28C0.335417 11.062 0 9.76408 0 8.38633C0 6.05014 0.867824 4.06837 2.60347 2.44102C4.33912 0.813673 6.45278 0 8.94444 0C11.4361 0 13.5498 0.813673 15.2854 2.44102C17.0211 4.06837 17.8889 6.05014 17.8889 8.38633C17.8889 9.76408 17.5535 11.057 16.8826 12.265C16.2118 13.473 15.2694 14.4764 14.0556 15.2751V16.7727C14.0556 17.4316 13.8053 17.9957 13.3049 18.4649C12.8044 18.9341 12.2028 19.1687 11.5 19.1687H6.38889ZM6.38889 16.7727H11.5V14.0171L12.5861 13.2983C13.4593 12.7392 14.1354 12.0254 14.6146 11.1568C15.0938 10.2882 15.3333 9.36473 15.3333 8.38633C15.3333 6.72903 14.7104 5.31633 13.4646 4.14824C12.2188 2.98014 10.712 2.39609 8.94444 2.39609C7.17685 2.39609 5.67014 2.98014 4.42431 4.14824C3.17847 5.31633 2.55556 6.72903 2.55556 8.38633C2.55556 9.36473 2.79514 10.2882 3.27431 11.1568C3.75347 12.0254 4.42963 12.7392 5.30278 13.2983L6.38889 14.0171V16.7727ZM6.38889 23.9609C6.02685 23.9609 5.72338 23.8461 5.47847 23.6165C5.23357 23.3869 5.11111 23.1023 5.11111 22.7629V21.5648H12.7778V22.7629C12.7778 23.1023 12.6553 23.3869 12.4104 23.6165C12.1655 23.8461 11.862 23.9609 11.5 23.9609H6.38889Z" fill="#0FEDFF"/>
</svg>
